HIERARCHY
ROOT root     
{
	OFFSET 0.0000 0.0000 0.0000
	CHANNELS 6 Xposition Yposition Zposition Zrotation Yrotation Xrotation
	JOINT pelvis   
	{
		OFFSET 0.0000 0.0000 0.0000
		CHANNELS 3 Zrotation Yrotation Xrotation
		JOINT thorax   
		{
			OFFSET 0.0000 23.0750 -5.0000
			CHANNELS 3 Zrotation Yrotation Xrotation
			JOINT rclavicle
			{
				OFFSET 0.0000 28.0009 0.0000
				CHANNELS 3 Zrotation Yrotation Xrotation
				JOINT rhumerus 
				{
					OFFSET -18.5725 5.5939 0.0000
					CHANNELS 3 Zrotation Yrotation Xrotation
					JOINT rradius  
					{
						OFFSET -24.8459 0.0000 0.0000
						CHANNELS 3 Zrotation Yrotation Xrotation
						JOINT rhand    
						{
							OFFSET -24.5477 0.0000 0.0000
							CHANNELS 3 Zrotation Yrotation Xrotation
							End Site
							{
								OFFSET -8.1826 0.0000 0.0000
							}
						}
					}
				}
			}
			JOINT lclavicle
			{
				OFFSET 0.0000 28.0009 0.0000
				CHANNELS 3 Zrotation Yrotation Xrotation
				JOINT lhumerus 
				{
					OFFSET 18.5725 5.5939 0.0000
					CHANNELS 3 Zrotation Yrotation Xrotation
					JOINT lradius  
					{
						OFFSET 24.8459 0.0000 0.0000
						CHANNELS 3 Zrotation Yrotation Xrotation
						JOINT lhand    
						{
							OFFSET 24.5477 0.0000 0.0000
							CHANNELS 3 Zrotation Yrotation Xrotation
							End Site
							{
								OFFSET 8.1826 0.0000 0.0000
							}
						}
					}
				}
			}
			JOINT head     
			{
				OFFSET 0.0000 35.2030 0.0000
				CHANNELS 3 Zrotation Yrotation Xrotation
				End Site
				{
					OFFSET 0.0000 11.7343 0.0000
				}
			}
		}
		JOINT rfemur   
		{
			OFFSET -8.2817 0.0000 0.0000
			CHANNELS 3 Zrotation Yrotation Xrotation
			JOINT rtibia   
			{
				OFFSET 0.0000 -43.3627 0.0000
				CHANNELS 3 Zrotation Yrotation Xrotation
				JOINT rfoot    
				{
					OFFSET 0.0000 -38.2947 0.0000
					CHANNELS 3 Zrotation Yrotation Xrotation
					JOINT rtoes    
					{
						OFFSET 0.0000 0.0000 16.6054
						CHANNELS 3 Zrotation Yrotation Xrotation
						End Site
						{
							OFFSET 0.0000 0.0000 5.5351
						}
					}
				}
			}
		}
		JOINT lfemur   
		{
			OFFSET 8.2817 0.0000 0.0000
			CHANNELS 3 Zrotation Yrotation Xrotation
			JOINT ltibia   
			{
				OFFSET 0.0000 -43.3627 0.0000
				CHANNELS 3 Zrotation Yrotation Xrotation
				JOINT lfoot    
				{
					OFFSET 0.0000 -38.2947 0.0000
					CHANNELS 3 Zrotation Yrotation Xrotation
					JOINT ltoes    
					{
						OFFSET 0.0000 0.0000 16.6054
						CHANNELS 3 Zrotation Yrotation Xrotation
						End Site
						{
							OFFSET 0.0000 0.0000 5.5351
						}
					}
				}
			}
		}
	}
}
MOTION
Frames: 13
Frame Time: .0333333
-63.877 73.951 -3.1086 -44.9091 83.1606 -23.5003 0 -0 0 -4.87219 6.04052 20.2458 20.856 -7.89179 -4.54897e-05 52.4543 -1.46299 9.65261 -180 80.8414 -180 -4.75944 5.26018 -0.218795 -21.8413 18.1428 0.000164662 -57.1602 26.7879 5.04286 -2.06234e-05 -89.6534 2.07742e-05 1.91595 1.59413 0.0267015 2.15248 1.87776 -17.5187 1.55595 -17.36 -16.971 -0 -0 65.5164 1.79203e-06 10.6635 7.42317 1.39351 -4.01643e-07 -83.6414 -10.0783 9.35968 -65.6101 -0 -0 64.1379 9.58626e-06 10.576 -10.8102 -2.00561 -1.34505e-06 -4.67076 
-62.519 73.714 -3.0811 -43.1379 82.7954 -22.0467 0 -0 0 -5.22339 6.10721 20.1833 21.1106 -7.5874 -2.01964e-05 52.8778 -1.64777 9.51675 -180 81.573 -180 -4.15157 5.42602 -0.196797 -22.4129 17.7894 6.02081e-05 -56.561 25.5333 4.91511 -1.62945e-05 -89.1992 1.6527e-05 2.41345 1.87678 0.0395008 1.95227 2.30449 -17.8007 0.977008 -16.5026 -17.0079 -0 -0 67.1339 -4.92903e-07 10.955 9.61679 1.85211 -2.26788e-05 -81.7343 -9.69726 9.37695 -64.9859 -0 -0 65.6925 9.58909e-05 11.4097 -12.2395 -2.45005 -2.67927e-06 -4.28327 
-61.192 73.515 -3.0678 -41.5497 82.4633 -20.7575 0 -0 0 -5.51507 6.13767 20.1607 21.3624 -7.25715 -4.99504e-06 53.357 -1.81521 9.30345 -180 82.4187 -180 -3.64913 5.58838 -0.178195 -23.039 17.3795 0.00015527 -55.8696 24.1076 4.83013 -7.48705e-06 -88.6878 7.31828e-06 2.94325 2.19992 0.0564992 1.65784 2.70889 -18.0603 0.461934 -15.6534 -17.2165 -0 -0 68.817 3.33576e-06 10.8861 11.5128 2.19822 5.4447e-05 -79.0329 -9.38715 9.37352 -64.2794 -0 -0 67.0221 -5.19938e-05 12.2724 -13.6874 -2.94663 -5.13107e-06 -4.55097 
-59.895 73.356 -3.0674 -40.2091 82.1737 -19.7003 0 -0 0 -5.72635 6.12326 20.1772 21.5963 -6.90949 3.17395e-05 53.8914 -1.96189 9.02478 -180 83.3862 -180 -3.27427 5.73892 -0.164199 -23.7056 16.9256 2.08132e-05 -55.0984 22.5191 4.79465 -4.44589e-06 -88.0958 4.59681e-06 3.49701 2.55867 0.0780984 1.25939 3.09215 -18.2844 0.0201382 -14.8517 -17.5882 -0 -0 70.562 -3.57882e-06 10.3791 13.0187 2.36263 -8.97825e-06 -75.7191 -9.13108 9.34689 -63.4952 -0 -0 68.1325 -9.7577e-05 13.1314 -15.1093 -3.47972 1.40764e-06 -5.33101 
-58.626 73.236 -3.0788 -39.1605 81.9299 -18.9205 0 -0 0 -5.84211 6.05631 20.23 21.7995 -6.55492 5.24427e-05 54.4756 -2.0824 8.69631 -180 84.4866 -180 -3.04693 5.86783 -0.156197 -24.3871 16.4519 0.00011315 -54.2754 20.7658 4.81719 -1.11261e-05 -87.3622 1.14328e-05 4.06716 2.94829 0.104699 0.754553 3.45686 -18.4624 -0.341752 -14.1353 -18.1135 -0 -0 72.3612 -7.12517e-05 9.38085 14.0704 2.30001 -4.56991e-05 -72.0065 -8.91362 9.29921 -62.6385 -0 -0 69.0337 -7.97365e-06 13.9541 -16.4626 -4.02778 -8.23684e-07 -6.44494 
-57.383 73.151 -3.0999 -38.4444 81.7344 -18.4596 0 -0 0 -5.84953 5.93345 20.3153 21.9606 -6.20374 4.07775e-05 55.104 -2.1749 8.33519 -180 85.7101 -180 -2.98186 5.96725 -0.155498 -25.0643 15.9754 -6.36034e-05 -53.431 18.8631 4.89879 -1.80583e-06 -86.5132 1.69907e-06 4.64512 3.36718 0.136596 0.147874 3.80355 -18.5898 -0.6176 -13.5284 -18.7822 -0 -0 74.197 -2.59716e-05 7.87212 14.634 2.0007 1.46159e-05 -68.0701 -8.71855 9.23527 -61.7179 -0 -0 69.7506 0.000158729 14.7054 -17.7197 -4.56718 6.73248e-06 -7.68309 
-56.164 73.1 -3.1302 -38.0627 81.5817 -18.3157 0 -0 0 -5.75244 5.75014 20.4183 22.0803 -5.8466 1.19607e-05 55.7583 -2.26152 7.94494 -180 87.069 -180 -3.08913 6.01353 -0.162303 -25.7316 15.4376 -0.000109447 -52.5921 16.94 4.96642 -3.54485e-06 -85.6154 3.28326e-06 5.2309 3.7943 0.173401 -0.545113 4.13651 -18.655 -0.81146 -13.0533 -19.5854 -0 -0 76.0484 2.95893e-05 5.88388 14.7008 1.49795 -1.64347e-05 -64.0081 -8.53818 9.15742 -60.7452 -0 -0 70.3056 6.52126e-05 15.363 -18.8583 -5.07518 -5.54199e-06 -8.86099 
-54.969 73.078 -3.167 -38.0193 81.4681 -18.4932 0 -0 0 -5.55104 5.50953 20.5352 22.1511 -5.50507 -1.21939e-06 56.428 -2.32957 7.55177 -180 88.547 -180 -3.3737 6.0069 -0.177102 -26.3404 14.9083 0.000127927 -51.8025 14.945 5.07214 -1.5402e-06 -84.6459 1.69128e-06 5.81406 4.23803 0.215304 -1.30419 4.45529 -18.6622 -0.919128 -12.7104 -20.5144 -0 -0 77.8844 5.84808e-06 3.48972 14.2687 0.861101 -4.17045e-06 -59.8351 -8.36099 9.07361 -59.7334 -0 -0 70.7246 -5.30817e-05 15.9065 -19.8736 -5.53334 2.19282e-06 -9.8039 
-53.797 73.084 -3.2088 -38.2974 81.4078 -18.9749 0 -0 0 -5.26084 5.21334 20.6558 22.176 -5.18362 2.38845e-06 57.0953 -2.38726 7.17037 -0.000503196 89.7996 -0.000503252 -3.83447 5.93379 -0.198799 -26.8691 14.3818 -8.91151e-05 -51.0935 12.9385 5.19158 -1.82288e-06 -83.66 2.03665e-06 6.39139 4.68688 0.261804 -2.10079 4.76251 -18.6124 -0.945906 -12.4956 -21.5621 -0 -0 79.6706 4.35524e-06 0.814401 13.3623 0.1882 1.26729e-06 -55.4822 -8.18553 8.99103 -58.6968 -0 -0 71.0347 -6.53769e-05 16.3289 -20.7673 -5.93036 2.5649e-06 -10.4261 
-52.648 73.112 -3.254 -38.8702 81.3732 -19.7243 0 -0 0 -4.90078 4.86773 20.7714 22.1631 -4.88707 4.64207e-06 57.7447 -2.44352 6.81476 -0 88.2482 -0 -4.46195 5.78679 -0.225597 -27.2896 13.8587 -5.55197e-05 -50.4946 10.9623 5.31508 -0 -82.7025 0 6.9546 5.1341 0.312201 -2.90256 5.05946 -18.5068 -0.898108 -12.3936 -22.7239 -0 -0 81.3761 -2.8396e-06 -1.98093 12.0217 -0.412698 -1.90451e-06 -50.8564 -8.01248 8.91678 -57.6522 -0 -0 71.253 8.33157e-05 16.634 -21.5481 -6.26216 -8.72225e-06 -10.7078 
-51.52 73.162 -3.3009 -39.6905 81.3762 -20.6956 0 -0 0 -4.49461 4.48065 20.8698 22.122 -4.6133 2.03251e-05 58.3618 -2.51712 6.49052 -3.45437e-06 86.5537 -3.66795e-06 -5.23727 5.56174 -0.254606 -27.5793 13.3255 0.000177271 -50.0253 9.07501 5.42211 -1.38932e-06 -81.8249 1.60329e-06 7.49183 5.56988 0.365 -3.67591 5.3473 -18.3493 -0.784527 -12.3819 -23.996 -0 -0 82.9664 5.90456e-06 -4.71616 10.315 -0.846299 -1.06478e-06 -45.9117 -7.84584 8.85746 -56.6093 -0 -0 71.3947 2.37779e-05 16.8352 -22.232 -6.53141 -9.24616e-06 -10.6912 
-50.415 73.231 -3.3477 -40.708 81.4105 -21.8359 0 -0 0 -4.06618 4.05978 20.9496 22.0656 -4.37471 -1.0925e-05 58.9327 -2.60788 6.21645 -3.53849e-06 84.8935 -3.23634e-06 -6.13519 5.26153 -0.2822 -27.7179 12.8126 -9.71405e-05 -49.6965 7.27312 5.52643 -1.47574e-06 -81.0514 1.26163e-06 7.99027 5.98571 0.418391 -4.38942 5.6285 -18.146 -0.61396 -12.4307 -25.3753 -0 -0 84.4161 1.59178e-06 -7.21666 8.33662 -1.0518 6.44337e-06 -40.7051 -7.68988 8.819 -55.5837 -0 -0 71.4733 5.12126e-05 16.9488 -22.8392 -6.74623 -1.13446e-06 -10.4631 
-49.332 73.317 -3.3929 -41.8689 81.4693 -23.0893 0 -0 0 -3.63889 3.61475 21.0087 22.0034 -4.16596 6.68905e-06 59.4462 -2.73862 5.99105 -4.88688e-06 83.2647 -5.0434e-06 -7.12103 4.89449 -0.304702 -27.6943 12.3061 4.81494e-05 -49.5107 5.59829 5.61163 -1.38949e-06 -80.4537 1.17531e-06 8.43077 6.36845 0.469904 -5.01527 5.90476 -17.9009 -0.396455 -12.5129 -26.8579 -0 -0 85.7045 4.26768e-06 -9.33419 6.2069 -1.01811 -1.61608e-06 -35.4614 -7.55155 8.80752 -54.5821 -0 -0 71.4929 5.88927e-05 16.9951 -23.3866 -6.9173 1.66387e-06 -10.1362 
